<svg xmlns="http://www.w3.org/2000/svg" id="Capa_2" viewBox="0 0 230.93 175.71"><defs><style>.cls-1{stroke-width:0px;}</style></defs><g id="Capa_1-2"><g id="Page-1"><g id="_018---Court"><path id="Shape" class="cls-1" d="M1.41,172.38c1.46,2.09,3.85,3.33,6.4,3.33h215.32c2.55,0,4.93-1.24,6.4-3.33s1.81-4.76.94-7.15l-27.49-75.59c3.61-.76,6.2-3.94,6.2-7.64v-23.43c0-6.47-5.24-11.71-11.71-11.71h-10.07l-16.56-41.92C169.66,1.95,166.78-.01,163.57,0h-96.2c-3.21-.01-6.1,1.95-7.27,4.94l-16.56,41.91h-10.07c-6.47,0-11.71,5.24-11.71,11.71v23.43c0,3.69,2.59,6.88,6.2,7.64L.47,165.23c-.87,2.39-.52,5.06.94,7.15h0ZM111.56,89.81v42.95h-59.24l11.99-42.95h47.25ZM166.62,89.81l11.99,42.95h-59.23v-42.95h47.25ZM50.15,140.57h130.64l7.63,27.33H42.52l7.63-27.33ZM196.52,167.9l-21.8-78.09h20l28.39,78.09h-26.6ZM163.57,7.81l15.43,39.05h-16.25l-10.9-39.05h11.73ZM76.29,46.86l5.47-19.52h29.8v19.52h-35.27ZM143.74,7.81l3.27,11.71h-63.09l3.27-11.71h56.55ZM119.37,27.33h29.82l5.47,19.52h-35.29v-19.52ZM67.37,7.81h11.71l-10.89,39.05h-16.25l15.43-39.05ZM29.56,58.57c0-2.16,1.75-3.9,3.9-3.9h163.99c2.16,0,3.9,1.75,3.9,3.9v23.43H29.56v-23.43ZM36.2,89.81h20l-21.8,78.09H7.81l28.39-78.09Z"></path></g></g></g></svg>