<svg xmlns="http://www.w3.org/2000/svg" id="Capa_2" viewBox="0 0 238.26 210.6"><defs><style>.cls-1{stroke-width:0px;}</style></defs><g id="Capa_1-2"><path class="cls-1" d="M151.4,117.99l-22.43-10.36c-13.63-6.3-30.87.37-43.32,15.15l-19.58-10.7c-4.34-2.02-10.46,1.68-13.37,7.94-1.41,2.9-1.92,6.16-1.46,9.35.24,2.47,1.68,4.66,3.84,5.88l18.13,9.93c-7.5,22.63-1.87,45.26,14.11,52.63l22.43,10.35c3.52,1.62,7.34,2.44,11.21,2.43,6.45-.15,12.74-2.04,18.21-5.46,10.39-6.53,18.58-16.03,23.51-27.26,11.48-24.83,6.42-51.72-11.28-59.89ZM58.77,128.82c-.09-.22-.16-.45-.19-.68-.19-1.7.12-3.43.88-4.96.7-1.8,2.04-3.29,3.76-4.17l17.9,9.8c-1.92,2.9-3.62,5.95-5.08,9.11-.04.09-.07.19-.12.28l-17.14-9.37ZM82.8,141.05c9.76-21.14,29.06-33.08,43.05-26.64l5.5,2.54c-3.28.96-6.43,2.33-9.36,4.08-10.39,6.53-18.58,16.02-23.51,27.25-5.34,11.04-7.26,23.44-5.5,35.58.58,3.37,1.58,6.65,2.98,9.77l-5.46-2.53c-14.02-6.47-17.45-28.93-7.69-50.05ZM155.92,174.81c-4.31,9.86-11.47,18.21-20.55,23.97-6.58,4.59-15.02,5.59-22.5,2.66-7.08-3.8-11.79-10.87-12.56-18.87-1.51-10.66.2-21.52,4.92-31.19,4.31-9.86,11.46-18.21,20.55-23.97,4.32-2.73,9.29-4.24,14.4-4.39,2.79-.02,5.54.57,8.08,1.73,13.99,6.46,17.42,28.91,7.66,50.07Z"></path><path class="cls-1" d="M61.81,162.42c-5.86,3.01-12.74,3.29-18.82.76-8.08-3.73-13-13.28-13.16-25.54-.03-2.04-1.69-3.67-3.72-3.67h-.05c-2.06.03-3.7,1.72-3.67,3.77,0,0,0,0,0,0,.01,6.08,1.28,12.09,3.73,17.65l-5.56-2.56c-7.08-3.8-11.79-10.87-12.56-18.87-1.51-10.66.21-21.52,4.92-31.19,4.31-9.86,11.47-18.21,20.55-23.97,6.58-4.58,15.02-5.58,22.49-2.67.07.04.15.07.23.1l5.4,2.48c-14.91,5.31-26.9,16.67-33,31.28-2.17,4.67-3.81,9.57-4.88,14.61-.43,2.01.86,3.99,2.87,4.41.26.05.52.08.78.08,1.76,0,3.27-1.23,3.63-2.95.96-4.49,2.42-8.86,4.35-13.02,9.76-21.13,29.07-33.11,43.05-26.63,7.39,4,12.2,11.53,12.73,19.92.29,2.04,2.18,3.45,4.22,3.16s3.45-2.18,3.16-4.22h0c-.91-10.88-7.31-20.55-16.98-25.62l-22.42-10.36c-.08-.04-.16-.07-.25-.1-9.64-3.87-20.57-2.69-29.17,3.13-10.38,6.53-18.57,16.02-23.51,27.25-11.48,24.9-6.43,51.78,11.28,59.96l22.43,10.35c3.5,1.6,7.31,2.42,11.17,2.39,4.77-.06,9.48-1.12,13.82-3.11,1.88-.84,2.72-3.04,1.88-4.92-.84-1.88-3.04-2.72-4.92-1.88Z"></path><path class="cls-1" d="M175,137.88c-2.06.02-3.7,1.71-3.68,3.77.02,2.06,1.71,3.7,3.77,3.68h.11c14.95-.37,26.77-12.8,26.39-27.75-.37-14.95-12.8-26.77-27.75-26.39-10.53.26-19.96,6.61-24.16,16.27-.82,1.89.04,4.08,1.92,4.9,1.89.82,4.08-.04,4.9-1.92,4.32-9.94,15.89-14.5,25.83-10.18,9.94,4.32,14.5,15.89,10.18,25.83-3.04,7-9.87,11.61-17.51,11.8h-.02Z"></path><path class="cls-1" d="M231.95,18.46C224.62,6.93,211.9-.03,198.24,0h-47.04c-22.09,0-39.99,17.91-39.99,40,0,5.8,1.26,11.53,3.7,16.8l12.56,27.1c-2.85,3.91-5.21,8.16-7.03,12.66-.73,1.92.25,4.07,2.17,4.8,1.87.7,3.96-.19,4.74-2.03,1.79-4.45,4.19-8.62,7.14-12.4.04-.05.08-.1.11-.15,3.3-4.2,7.24-7.85,11.68-10.82h0s.04-.04.07-.05c23.43-15.45,54.95-8.98,70.4,14.45,15.45,23.43,8.98,54.95-14.45,70.4-.7.46-1.4.9-2.12,1.32h-25.48c-2.06,0-3.72,1.67-3.72,3.72s1.67,3.72,3.72,3.72h26.46c.64,0,1.27-.18,1.82-.5,28.01-15.64,38.04-51.03,22.39-79.04-1.09-1.96-2.3-3.85-3.61-5.66l12.76-27.55c5.77-12.38,4.79-26.85-2.59-38.34ZM227.78,53.67l-11.27,24.33c-2.24-2.33-4.67-4.46-7.27-6.39l10.11-21.85c5.4-11.65.33-25.48-11.33-30.88-3.07-1.42-6.41-2.16-9.79-2.15h-4.67c-2.06,0-3.72,1.67-3.72,3.72s1.67,3.72,3.72,3.72h4.65c8.73,0,15.81,7.06,15.82,15.79,0,2.3-.5,4.58-1.47,6.67l-9.63,20.83c-17.54-9.85-38.92-9.95-56.54-.25l-9.53-20.57c-3.67-7.92-.23-17.32,7.69-20.99,2.09-.97,4.36-1.47,6.66-1.47h31.23c2.06,0,3.72-1.67,3.72-3.72s-1.67-3.72-3.72-3.72h-31.26c-12.85,0-23.26,10.42-23.26,23.27,0,3.37.74,6.71,2.15,9.77l9.96,21.49c-2.6,1.91-5.04,4.03-7.29,6.34l-11.09-23.94c-7.56-16.3-.47-35.65,15.83-43.21,4.29-1.99,8.96-3.02,13.69-3.02h47.04c17.97,0,32.55,14.57,32.55,32.54,0,4.73-1.03,9.4-3.01,13.68h0Z"></path></g></svg>