<svg xmlns="http://www.w3.org/2000/svg" viewBox="0 0 64 64">
  <g fill="none">
    <path d="M32 6a26 26 0 0 0-22.62 39L6 58l13.39-3.29A26 26 0 1 0 32 6Z" fill="#25D366"/>
    <path d="M32 12a20 20 0 0 0-17.39 30l-1.21 6.92 6.74-1.66A20 20 0 1 0 32 12Z" fill="#fff"/>
    <path d="M44.54 37.82c-.3-.48-1.09-.77-2.28-1.35s-3.56-1.64-4.11-1.83-.95-.28-1.35.3-1.55 1.83-1.9 2.2-.7.42-1.28.14-2.5-.92-4.77-2.94c-1.76-1.56-2.94-3.49-3.28-4.07s-.04-.9.26-1.19c.27-.27.62-.7.93-1.05s.41-.62.62-1.04.11-.77-.06-1.05-1.35-3.25-1.85-4.45c-.49-1.17-.99-1.01-1.35-1.03l-1.15-.02c-.4 0-1.04.15-1.59.74s-2.09 2.05-2.09 5 .5 4.89 1.14 6.57 2.69 4.24 6.16 6.89 5.7 3.35 6.77 3.84 2.1.46 2.88.28 2.69-1.1 3.06-2.18.37-1.99.26-2.18-.27-.23-.57-.52Z" fill="#25D366"/>
  </g>
</svg>
