<svg xmlns="http://www.w3.org/2000/svg" viewBox="0 0 64 64" width="512" height="512"><g id="Layer_7" data-name="Layer 7"><path d="M38.955,29.848a1,1,0,0,0,.317-1.378,18,18,0,1,0-1.548,21.177A1,1,0,1,0,36.2,48.353,16,16,0,1,1,37.577,29.53,1,1,0,0,0,38.955,29.848Z"></path><path d="M24,26A12,12,0,1,0,36,38,12.013,12.013,0,0,0,24,26Zm0,2a10.018,10.018,0,0,1,9.551,7.035l-.844.843a1,1,0,0,1-1.414,0l-1.172-1.172a3,3,0,0,0-4.242,0l-1.172,1.171a1,1,0,0,1-1.414,0l-1.172-1.172a3,3,0,0,0-4.242,0l-1.172,1.171a1,1,0,0,1-1.414,0l-.844-.844A10.017,10.017,0,0,1,24,28Zm0,20A10.011,10.011,0,0,1,14,38c0-.2.018-.389.03-.584a3,3,0,0,0,4.091-.123l1.172-1.171a1,1,0,0,1,1.414,0l1.172,1.172a3,3,0,0,0,4.242,0l1.172-1.171a1,1,0,0,1,1.414,0l1.172,1.172a3,3,0,0,0,4.091.123c.012.194.03.387.03.584A10.011,10.011,0,0,1,24,48Z"></path><path d="M24,3a4,4,0,1,0,4,4A4,4,0,0,0,24,3Zm0,6a2,2,0,1,1,2-2A2,2,0,0,1,24,9Z"></path><path d="M43,3H31a1,1,0,0,0-1,1v6a1,1,0,0,0,1,1H43a1,1,0,0,0,1-1V4A1,1,0,0,0,43,3ZM42,9H32V5H42Z"></path><path d="M15,5H7a3,3,0,0,0,0,6h8a3,3,0,0,0,0-6Zm0,4H7A1,1,0,0,1,7,7h8a1,1,0,0,1,0,2Z"></path><path d="M64,34.685a2.685,2.685,0,0,0-5.289-.651L58.22,36H48V3a3,3,0,0,0-3-3H3A3,3,0,0,0,0,3V61a3,3,0,0,0,3,3H39a1,1,0,0,0,0-2H3a1,1,0,0,1-1-1V14H46V36H43.78l-.491-1.967A2.685,2.685,0,0,0,38,34.685V37c0,.014.007.025.008.039s-.006.025-.005.038l1.716,22.306A5.022,5.022,0,0,0,44.7,64H57.3a5.022,5.022,0,0,0,4.985-4.617L64,37.077c0-.013-.005-.025-.005-.038S64,37.014,64,37ZM2,12V3A1,1,0,0,1,3,2H45a1,1,0,0,1,1,1v9ZM60.65,34.519a.685.685,0,0,1,1.35.166V36H60.28ZM40,34.685a.685.685,0,0,1,1.35-.167L41.72,36H40ZM60.287,59.23A3.013,3.013,0,0,1,57.3,62H44.7a3.013,3.013,0,0,1-2.991-2.77L40.08,38H61.92Z"></path><path d="M49,39H43a1,1,0,0,0-1,1v4a1,1,0,0,0,1,1h6a1,1,0,0,0,1-1V40A1,1,0,0,0,49,39Zm-1,4H44V41h4Z"></path><path d="M49,47H43a1,1,0,0,0-1,1v4a1,1,0,0,0,1,1h6a1,1,0,0,0,1-1V48A1,1,0,0,0,49,47Zm-1,4H44V49h4Z"></path><path d="M49,55H44a1,1,0,0,0-1,1v2a3,3,0,0,0,3,3h3a1,1,0,0,0,1-1V56A1,1,0,0,0,49,55Zm-1,4H46a1,1,0,0,1-1-1V57h3Z"></path><path d="M53,39a1,1,0,0,0-1,1v4a1,1,0,0,0,1,1h6a1,1,0,0,0,1-1V40a1,1,0,0,0-1-1Zm5,4H54V41h4Z"></path><path d="M59,47H53a1,1,0,0,0-1,1v4a1,1,0,0,0,1,1h6a1,1,0,0,0,1-1V48A1,1,0,0,0,59,47Zm-1,4H54V49h4Z"></path><path d="M58,55H53a1,1,0,0,0-1,1v4a1,1,0,0,0,1,1h3a3,3,0,0,0,3-3V56A1,1,0,0,0,58,55Zm-1,3a1,1,0,0,1-1,1H54V57h3Z"></path></g></svg>