<svg xmlns="http://www.w3.org/2000/svg" xmlns:svg="http://www.w3.org/2000/svg" id="svg87" xml:space="preserve" width="682.66669" height="682.66669" viewBox="0 0 682.66669 682.66669"><defs id="defs91"><clipPath clipPathUnits="userSpaceOnUse" id="clipPath101"><path d="M 0,512 H 512 V 0 H 0 Z" id="path99"></path></clipPath></defs><g id="g93" transform="matrix(1.3333333,0,0,-1.3333333,0,682.66667)"><g id="g95"><g id="g97" clip-path="url(#clipPath101)"><g id="g103" transform="translate(406.3882,497.6953)"><path d="m 0,0 c 0,3.758 -3.046,6.804 -6.804,6.804 h -371.96 c -3.757,0 -6.803,-3.046 -6.803,-6.804 V -89.042 H 0 Z" style="fill:none;stroke:#000000;stroke-width:15;stroke-linecap:round;stroke-linejoin:round;stroke-miterlimit:10;stroke-dasharray:none;stroke-opacity:1" id="path105"></path></g><g id="g107" transform="translate(27.6245,504.4995)"><path d="M 0,0 C -3.758,0 -6.804,-3.046 -6.804,-6.804 V -95.846 H 127.222 V 0 Z" style="fill:none;stroke:#000000;stroke-width:15;stroke-linecap:round;stroke-linejoin:round;stroke-miterlimit:10;stroke-dasharray:none;stroke-opacity:1" id="path109"></path></g><g id="g111" transform="translate(236.2759,456.5767)"><path d="m 0,0 c 0,-12.521 -10.15,-22.672 -22.671,-22.672 -12.522,0 -22.672,10.151 -22.672,22.672 0,12.521 10.15,22.671 22.672,22.671 C -10.15,22.671 0,12.521 0,0 Z" style="fill:none;stroke:#000000;stroke-width:15;stroke-linecap:round;stroke-linejoin:round;stroke-miterlimit:10;stroke-dasharray:none;stroke-opacity:1" id="path113"></path></g><path d="m 370.13,437.309 h -97.768 v 38.535 h 97.768 z" style="fill:none;stroke:#000000;stroke-width:15;stroke-linecap:round;stroke-linejoin:round;stroke-miterlimit:10;stroke-dasharray:none;stroke-opacity:1" id="path115"></path><g id="g117" transform="translate(111.9995,480.7642)"><path d="m 0,0 h -48.332 c -4.826,0 -8.739,3.912 -8.739,8.739 V 23.735 H 8.739 V 8.739 C 8.739,3.912 4.826,0 0,0 Z" style="fill:none;stroke:#000000;stroke-width:15;stroke-linecap:round;stroke-linejoin:round;stroke-miterlimit:10;stroke-dasharray:none;stroke-opacity:1" id="path119"></path></g><g id="g121" transform="translate(436.6914,133.9648)"><path d="m 0,0 v -13.955 c 0,-4.074 -3.303,-7.377 -7.376,-7.377 h -49.459 c -4.075,0 -7.377,3.303 -7.377,7.377 V 87.881 H 0 V 35" style="fill:none;stroke:#000000;stroke-width:15;stroke-linecap:round;stroke-linejoin:round;stroke-miterlimit:10;stroke-dasharray:none;stroke-opacity:1" id="path123"></path></g><g id="g125" transform="translate(476.4619,221.8462)"><path d="M 0,0 H -39.771 V -29.435 H 0 c 8.128,0 14.717,6.589 14.717,14.718 C 14.717,-6.589 8.128,0 0,0 Z m -103.982,-29.435 h -92.264 c -8.128,0 -14.717,6.589 -14.717,14.718 0,8.128 6.589,14.717 14.717,14.717 h 92.264 z" style="fill:none;stroke:#000000;stroke-width:15;stroke-linecap:round;stroke-linejoin:round;stroke-miterlimit:10;stroke-dasharray:none;stroke-opacity:1" id="path127"></path></g><g id="g129" transform="translate(20.8208,304.6074)"><path d="m 0,0 v -290.303 c 0,-3.758 3.046,-6.803 6.804,-6.803 h 282.359" style="fill:none;stroke:#000000;stroke-width:15;stroke-linecap:round;stroke-linejoin:round;stroke-miterlimit:10;stroke-dasharray:none;stroke-opacity:1" id="path131"></path></g><g id="g133" transform="translate(406.3882,221.8462)"><path d="m 0,0 v 275.849 c 0,3.758 -3.046,6.804 -6.804,6.804 h -361.434 c -9.571,0 -17.329,-7.759 -17.329,-17.33 V 117.761" style="fill:none;stroke:#000000;stroke-width:15;stroke-linecap:round;stroke-linejoin:round;stroke-miterlimit:10;stroke-dasharray:none;stroke-opacity:1" id="path135"></path></g><g id="g137" transform="translate(372.4795,192.4111)"><path d="m 0,0 h -89.11 l 18.36,-177.466 c 0.438,-4.23 4.002,-7.444 8.254,-7.444 H 74.215 c 4.252,0 7.816,3.214 8.254,7.444 L 100.83,0 H 64.212" style="fill:none;stroke:#000000;stroke-width:15;stroke-linecap:round;stroke-linejoin:round;stroke-miterlimit:10;stroke-dasharray:none;stroke-opacity:1" id="path139"></path></g><g id="g141" transform="translate(318.9331,221.8462)"><path d="m 0,0 c -0.276,11.131 -2.139,21.874 -5.404,31.998 -1.397,4.331 -5.009,7.585 -9.454,8.561 -3.066,0.671 -6.251,1.027 -9.519,1.027 -25.592,0 -46.13,-21.635 -44.322,-47.614 1.373,-19.711 15.869,-36.138 34.877,-40.244" style="fill:none;stroke:#000000;stroke-width:15;stroke-linecap:round;stroke-linejoin:round;stroke-miterlimit:10;stroke-dasharray:none;stroke-opacity:1" id="path143"></path></g><g id="g145" transform="translate(294.7378,325.4048)"><path d="m 0,0 c -22.506,17.188 -50.627,27.398 -81.133,27.398 -73.898,0 -133.804,-59.905 -133.804,-133.803 0,-73.897 59.906,-133.803 133.804,-133.803 29.215,0 56.239,9.37 78.243,25.26" style="fill:none;stroke:#000000;stroke-width:15;stroke-linecap:round;stroke-linejoin:round;stroke-miterlimit:10;stroke-dasharray:none;stroke-opacity:1" id="path147"></path></g><g id="g149" transform="translate(347.3711,221.8462)"><path d="M 0,0 C -0.62,29.672 -10.897,56.97 -27.816,78.876" style="fill:none;stroke:#000000;stroke-width:15;stroke-linecap:round;stroke-linejoin:round;stroke-miterlimit:10;stroke-dasharray:none;stroke-opacity:1" id="path151"></path></g><g id="g153" transform="translate(296.8604,263.3701)"><path d="m 0,0 c -15.875,29.728 -47.201,49.958 -83.256,49.958 -52.097,0 -94.328,-42.232 -94.328,-94.328 0,-52.096 42.231,-94.329 94.328,-94.329 29.524,0 55.876,13.568 73.173,34.804 l -1.666,16.099" style="fill:none;stroke:#000000;stroke-width:15;stroke-linecap:round;stroke-linejoin:round;stroke-miterlimit:10;stroke-dasharray:none;stroke-opacity:1" id="path155"></path></g><g id="g157" transform="translate(250.6587,212.0776)"><path d="m 0,0 c -17.393,1.06 -18.182,13.922 -37.065,13.922 -19.694,0 -19.694,-14 -39.387,-14 -19.694,0 -19.694,14 -39.387,14 -7.122,0 -11.665,-1.834 -15.498,-4.172" style="fill:none;stroke:#000000;stroke-width:15;stroke-linecap:round;stroke-linejoin:round;stroke-miterlimit:10;stroke-dasharray:none;stroke-opacity:1" id="path159"></path></g><g id="g161" transform="translate(334.7896,87.2788)"><path d="m 0,0 h 16.208 c 6.358,0 11.513,5.155 11.513,11.513 v 2.328 c 0,6.359 -5.155,11.513 -11.513,11.513 H -0.241 c -6.827,0 -12.155,-5.907 -11.452,-12.698 l 0.241,-2.327 C -10.845,4.46 -5.9,0 0,0 Z" style="fill:none;stroke:#000000;stroke-width:15;stroke-linecap:round;stroke-linejoin:round;stroke-miterlimit:10;stroke-dasharray:none;stroke-opacity:1" id="path163"></path></g><g id="g165" transform="translate(422.1289,112.6333)"><path d="m 0,0 h -22.75 c -6.358,0 -11.513,-5.155 -11.513,-11.513 v -2.328 c 0,-6.359 5.155,-11.513 11.513,-11.513 h 22.509 c 5.9,0 10.845,4.459 11.452,10.328 l 0.241,2.328 C 12.155,-5.907 6.827,0 0,0 Z" style="fill:none;stroke:#000000;stroke-width:15;stroke-linecap:round;stroke-linejoin:round;stroke-miterlimit:10;stroke-dasharray:none;stroke-opacity:1" id="path167"></path></g><g id="g169" transform="translate(387.8657,50.4106)"><path d="M 0,0 V -1.396 C 0,-7.755 5.155,-12.91 11.513,-12.91 h 17.359 c 5.9,0 10.845,4.46 11.453,10.329 l 0.144,1.396 C 41.171,5.606 35.844,11.513 29.017,11.513 H 11.513 C 5.155,11.513 0,6.358 0,0 Z" style="fill:none;stroke:#000000;stroke-width:15;stroke-linecap:round;stroke-linejoin:round;stroke-miterlimit:10;stroke-dasharray:none;stroke-opacity:1" id="path171"></path></g><g id="g173" transform="translate(350.9976,61.9238)"><path d="m 0,0 h -11.202 c -6.827,0 -12.155,-5.907 -11.452,-12.698 l 0.144,-1.396 c 0.607,-5.869 5.552,-10.329 11.452,-10.329 H 0 c 6.358,0 11.513,5.155 11.513,11.513 v 1.397 C 11.513,-5.155 6.358,0 0,0 Z" style="fill:none;stroke:#000000;stroke-width:15;stroke-linecap:round;stroke-linejoin:round;stroke-miterlimit:10;stroke-dasharray:none;stroke-opacity:1" id="path175"></path></g><g id="g177" transform="translate(362.5107,149.5015)"><path d="M 0,0 V 1.396 C 0,7.755 -5.155,12.91 -11.513,12.91 h -21.599 c -6.827,0 -12.155,-5.908 -11.452,-12.699 l 0.144,-1.396 c 0.607,-5.868 5.553,-10.328 11.453,-10.328 h 21.454 C -5.155,-11.513 0,-6.358 0,0 Z" style="fill:none;stroke:#000000;stroke-width:15;stroke-linecap:round;stroke-linejoin:round;stroke-miterlimit:10;stroke-dasharray:none;stroke-opacity:1" id="path179"></path></g></g></g></g></svg>