<svg xmlns="http://www.w3.org/2000/svg" id="Layer_1" height="512" viewBox="0 0 1580 1580" width="512"><g><path d="m1487.4 542.5h-1394.8c-13.3 0-24-10.7-24-24v-161.9c0-9.5 5.6-18.1 14.2-21.9l697.4-310.6c6.2-2.8 13.3-2.8 19.5 0l697.4 310.6c8.7 3.9 14.2 12.4 14.2 21.9v161.9c.1 13.3-10.7 24-23.9 24zm-1370.8-48h1346.7v-122.3l-673.3-299.9-673.4 299.9z"></path><path d="m1382.7 645.9h-1185.4c-13.3 0-24-10.7-24-24s10.7-24 24-24h1185.4c13.3 0 24 10.7 24 24s-10.7 24-24 24z"></path><path d="m1382.7 749.2h-1185.4c-13.3 0-24-10.7-24-24s10.7-24 24-24h1185.4c13.3 0 24 10.7 24 24s-10.7 24-24 24z"></path><g><path d="m1035 1181.1h-490c-25 0-49.3-5.1-72.2-15.1l-84.5-37.1c-12.1-5.3-17.7-19.5-12.3-31.6s19.5-17.7 31.6-12.3l84.4 37c16.8 7.4 34.6 11.1 52.9 11.1h490c18.3 0 36.1-3.7 52.9-11.1l84.5-37.1c12.1-5.3 26.3.2 31.6 12.3s-.2 26.3-12.3 31.6l-84.5 37.1c-22.8 10.1-47.1 15.2-72.1 15.2z"></path><path d="m1203 1461.9h-826c-40.7 0-73.8-33.1-73.8-73.8v-161.1c0-21.9 7.2-43.6 20.3-61.1l158.5-211.3c33.8-45.1 87.6-72 143.9-72h328.3c56.3 0 110.1 26.9 143.9 72l158.4 211.4c13.1 17.5 20.3 39.2 20.3 61.1v161.1c-.1 40.6-33.1 73.7-73.8 73.7zm-577.1-531.3c-41.3 0-80.7 19.7-105.5 52.8l-158.4 211.4c-6.9 9.3-10.8 20.7-10.8 32.3v161.1c0 14.2 11.6 25.8 25.8 25.8h826c14.2 0 25.8-11.6 25.8-25.8v-161.1c0-11.6-3.8-23-10.8-32.3l-158.4-211.4c-24.8-33-64.2-52.8-105.5-52.8z"></path><path d="m920.4 1363.4h-260.8c-20.9 0-39.5-14-45.2-34.1l-10.8-37.9c-4.1-14.3-1.3-29.4 7.7-41.3s22.7-18.7 37.6-18.7h282.5c14.9 0 28.6 6.8 37.6 18.7s11.8 26.9 7.7 41.3l-10.8 37.9c-6 20.1-24.6 34.1-45.5 34.1zm-260.1-48h259.4l10.3-35.9h-280z"></path><path d="m1144.1 1356.9c-.9 0-1.8 0-2.8-.1l-60-3c-30.1-1.5-53.7-26.3-53.7-56.4s23.6-54.9 53.7-56.4l60-3c15.4-.8 30.6 4.9 41.7 15.5 11.2 10.6 17.5 25.5 17.5 40.9v6c0 15.4-6.4 30.3-17.5 40.9-10.4 10.1-24.5 15.6-38.9 15.6zm.1-70.9c-.1 0-.3 0-.4 0l-60 3c-4.5.2-8.1 3.9-8.1 8.5 0 4.5 3.5 8.2 8.1 8.5l60 3c3.2.2 5.3-1.4 6.3-2.3s2.6-3 2.6-6.1v-6c0-3.2-1.7-5.2-2.6-6.1-1-1-3-2.5-5.9-2.5z"></path><path d="m435.9 1356.9c-14.4 0-28.5-5.6-39-15.6-11.2-10.6-17.5-25.5-17.5-40.9v-6c0-15.4 6.4-30.3 17.5-40.9 11.2-10.6 26.4-16.2 41.7-15.5l60 3c30.1 1.5 53.7 26.3 53.7 56.4s-23.6 54.9-53.7 56.4l-60 3c-.9.1-1.8.1-2.7.1zm-.1-70.9c-2.9 0-4.9 1.4-5.8 2.3-1 .9-2.6 3-2.6 6.1v6c0 3.2 1.7 5.2 2.6 6.1 1 .9 3.1 2.5 6.3 2.3l60-3c4.5-.2 8.1-3.9 8.1-8.5s-3.5-8.2-8.1-8.5l-60-3c-.2.2-.3.2-.5.2z"></path><g><path d="m475.5 1558h-34.8c-37 0-67-30.1-67-67v-53c0-13.3 10.7-24 24-24h120.9c13.3 0 24 10.7 24 24v53c-.1 36.9-30.2 67-67.1 67zm-53.9-96.1v29c0 10.5 8.5 19 19 19h34.8c10.5 0 19-8.5 19-19v-29z"></path><path d="m1139.4 1558h-34.8c-37 0-67-30.1-67-67v-53c0-13.3 10.7-24 24-24h120.9c13.3 0 24 10.7 24 24v53c-.1 36.9-30.2 67-67.1 67zm-53.9-96.1v29c0 10.5 8.5 19 19 19h34.8c10.5 0 19-8.5 19-19v-29z"></path></g></g><path d="m197.3 1558h-104.7c-13.3 0-24-10.7-24-24v-1015.5c0-13.3 10.7-24 24-24s24 10.7 24 24v991.5h56.7v-991.5c0-13.3 10.7-24 24-24s24 10.7 24 24v1015.5c0 13.3-10.7 24-24 24z"></path><path d="m1487.4 1558h-104.7c-13.3 0-24-10.7-24-24v-1015.5c0-13.3 10.7-24 24-24s24 10.7 24 24v991.5h56.7v-991.5c0-13.3 10.7-24 24-24s24 10.7 24 24v1015.5c0 13.3-10.8 24-24 24z"></path></g></svg>