<svg xmlns="http://www.w3.org/2000/svg" id="Capa_1" height="512" viewBox="0 0 512 512" width="512"><path d="m344 158.211h160.5c4.143 0 7.5-3.358 7.5-7.5s-3.357-7.5-7.5-7.5h-25.341c0-14.06 0-93.066 0-101.467 0-6.864-5.584-12.448-12.447-12.448h-30.422v-16.766c0-6.863-5.584-12.447-12.447-12.447h-32.976c-6.863 0-12.447 5.584-12.447 12.447v130.681h-34.42c-4.143 0-7.5 3.358-7.5 7.5s3.357 7.5 7.5 7.5zm49.42-113.915h27.87v18.507h-27.87zm70.739 47.721h-27.869v-18.507h27.869zm-27.869 51.194v-36.194h27.869v36.194zm27.869-84.701h-27.869v-14.214h27.869zm-42.869-43.427v14.213h-27.87v-14.213zm-27.87 62.721h27.87v65.408h-27.87z"></path><path d="m43.352 51.917h64.583c4.143 0 7.5-3.358 7.5-7.5s-3.357-7.5-7.5-7.5h-64.583c-4.143 0-7.5 3.358-7.5 7.5s3.357 7.5 7.5 7.5z"></path><path d="m115.435 74.802c0-4.142-3.357-7.5-7.5-7.5h-64.583c-4.143 0-7.5 3.358-7.5 7.5s3.357 7.5 7.5 7.5h64.583c4.142 0 7.5-3.358 7.5-7.5z"></path><path d="m494.339 243.238h-113.143c-.303-44.374-34.508-80.825-77.958-84.713v-141.212c0-9.409-7.655-17.063-17.064-17.063h-269.111c-9.409 0-17.063 7.655-17.063 17.063v159.021c0 9.409 7.654 17.063 17.063 17.063h103.564l-9.231 49.84h-93.735c-9.525 0-17.274 7.749-17.274 17.274v18.168c0 9.525 7.749 17.274 17.274 17.274h16.492v195.25c0 11.421 9.292 20.713 20.714 20.713h14.727c11.421 0 20.713-9.292 20.713-20.713v-195.25h119.57v14.588c0 24.524 19.952 44.476 44.477 44.476h33.69v14.092h-67.407c-8.578 0-15.558 6.979-15.558 15.557 0 17.654 14.362 32.017 32.017 32.017h50.948v55.38h-23.071c-6.824 0-13.376 2.892-17.975 7.934l-17.662 19.366c-2.792 3.061-2.573 7.804.487 10.596 1.438 1.312 3.247 1.958 5.052 1.958 2.035 0 4.063-.824 5.543-2.446l17.662-19.366c1.764-1.933 4.275-3.042 6.893-3.042h23.071v17.333c0 4.142 3.357 7.5 7.5 7.5s7.5-3.358 7.5-7.5v-17.333h23.072c2.617 0 5.129 1.109 6.892 3.042l17.661 19.366c2.793 3.061 7.538 3.278 10.596.488 3.061-2.791 3.279-7.535.488-10.595l-17.662-19.366c-4.599-5.042-11.15-7.935-17.975-7.935h-23.072v-55.38h50.948c17.654 0 32.017-14.363 32.017-32.017 0-8.578-6.979-15.557-15.557-15.557h-67.408v-14.092h33.69c24.524 0 44.477-19.952 44.477-44.476v-14.588h40.096v195.25c0 11.421 9.292 20.713 20.713 20.713h14.727c11.421 0 20.713-9.292 20.713-20.713v-126.407c0-4.142-3.357-7.5-7.5-7.5s-7.5 3.358-7.5 7.5v126.407c0 3.15-2.563 5.713-5.713 5.713h-14.727c-3.15 0-5.713-2.563-5.713-5.713v-195.25h26.152v33.78c0 4.142 3.357 7.5 7.5 7.5s7.5-3.358 7.5-7.5v-33.78h16.88c9.525 0 17.274-7.749 17.274-17.274v-18.168c0-9.524-7.749-17.273-17.274-17.273zm-477.276-64.84c-1.138 0-2.063-.926-2.063-2.063v-14.895h29.265c4.143 0 7.5-3.358 7.5-7.5s-3.357-7.5-7.5-7.5h-29.265v-129.127c0-1.138.926-2.063 2.063-2.063h269.11c1.139 0 2.064.926 2.064 2.063v129.126h-208.91c-4.143 0-7.5 3.358-7.5 7.5s3.357 7.5 7.5 7.5h192.808c-11.84 3.369-22.641 9.216-31.802 16.958-24.614.001-197.123.001-223.27.001zm159.877 64.84h-50.287l9.231-49.84h31.826zm-101.633 247.966c0 3.15-2.563 5.713-5.713 5.713h-14.727c-3.15 0-5.714-2.563-5.714-5.713v-195.25h26.153v195.25zm134.57-210.25h-192.216c-1.254 0-2.274-1.02-2.274-2.274v-18.168c0-1.254 1.021-2.274 2.274-2.274h192.216zm.015-37.716h-17.696l-9.231-49.84h43.389c-10.24 14.01-16.335 31.226-16.462 49.84zm104.608 140.871h55.952c.307 0 .557.25.557.557 0 9.383-7.634 17.017-17.017 17.017h-65.948-20.754-30.194c-9.383 0-17.017-7.634-17.017-17.017 0-.307.25-.557.558-.557h82.407zm51.711-73.568c0 16.253-13.223 29.476-29.477 29.476h-82.381c-16.254 0-29.477-13.223-29.477-29.476v-66.713c0-38.951 31.677-70.641 70.623-70.665.086.002.177.004.235.004 38.878.104 70.476 31.76 70.476 70.662v66.712zm130.402-31.861c0 1.254-1.021 2.274-2.274 2.274h-113.128v-22.716h113.128c1.254 0 2.274 1.02 2.274 2.274z"></path></svg>