<svg xmlns="http://www.w3.org/2000/svg" id="Capa_2" viewBox="0 0 149.1 231.08"><defs><style>.cls-1{stroke-width:0px;}</style></defs><g id="Capa_1-2"><path class="cls-1" d="M129.03,188.1c-1.49-1.13-3.62-.83-4.74.67s-.83,3.61.67,4.74c2.77,2.09,6.07,5.39,6.07,9.3,0,10.17-23.19,21.5-56.48,21.5s-56.48-11.33-56.48-21.5c0-7.69,12.78-15.44,31.33-19.13.63.84,1.26,1.67,1.88,2.48,15.45,20.04,21.33,20.04,23.27,20.04,2.97,0,8.26-1.63,19.86-15.75,1.72-2.09,3.49-4.36,5.29-6.77,2.55.51,5.04,1.1,7.41,1.76,1.8.51,3.67-.55,4.17-2.34.51-1.8-.54-3.67-2.34-4.17-1.59-.45-3.23-.86-4.9-1.24,4.79-6.82,9.72-14.5,14.45-22.54,19.17-32.57,30.61-62.69,30.61-80.58C149.1,33.44,115.66,0,74.55,0S0,33.44,0,74.55c0,16.21,8.89,38.22,16.34,53.83.81,1.69,2.83,2.4,4.51,1.6,1.69-.81,2.4-2.83,1.6-4.51-10.11-21.18-15.68-39.26-15.68-50.91C6.77,37.18,37.17,6.77,74.55,6.77s67.78,30.41,67.78,67.78c0,19.7-15.33,52.77-29.67,77.15-7.83,13.31-16.17,25.54-23.48,34.45-10.78,13.12-14.59,13.28-14.62,13.28-.04,0-4.64-.2-17.9-17.41-8.87-11.5-18.74-27.02-27.1-42.58-.88-1.65-2.94-2.27-4.58-1.38-1.65.89-2.27,2.94-1.38,4.58,6.62,12.32,14.18,24.63,21.48,35.03-20.97,4.75-33.76,14.17-33.76,25.13,0,8.1,6.97,15.46,19.62,20.72,24.22,10.07,63.03,10.07,87.26,0,12.65-5.26,19.62-12.62,19.62-20.72,0-5.3-3.03-10.39-8.76-14.71Z"></path><path class="cls-1" d="M64.96,105.07c2.01.11,3.95-.19,5.78-.88,2.45-.93,5.16-.93,7.61,0,1.85.7,3.79.99,5.78.88,7.07-.4,12.77-6.02,13.26-13.07.29-4.1-1.21-8.1-4.1-10.99l-6.21-6.35c-6.89-7.05-18.2-7.05-25.09,0-6.03,6.17-5.84,5.95-6.18,6.34h-.01c-2.91,2.88-4.41,6.9-4.12,11,.5,7.06,6.2,12.68,13.27,13.07ZM60.59,85.78c.06-.06.11-.11.16-.17,1.95-2.01-2.41,2.47,6.09-6.22,4.23-4.33,11.18-4.33,15.41,0l6.22,6.36c1.62,1.62,2.32,3.71,2.18,5.77-.36,5.12-5.49,8-9.91,6.33-4-1.51-8.4-1.51-12.4,0-4.43,1.67-9.55-1.21-9.91-6.33-.15-2.14.63-4.23,2.14-5.74Z"></path><path class="cls-1" d="M48.19,59.96c-2.7-1.15-5.57-1.04-7.88.29-4.57,2.64-5.66,9.04-2.46,14.57,2.07,3.59,5.75,6.23,9.74,6.23,4.38,0,7.74-3.22,8.3-7.76.66-5.38-2.7-11.21-7.7-13.33ZM49.16,72.45c-.06.46-.25,1.29-.86,1.64-.61.35-1.42.1-1.85-.08-1.05-.45-2.06-1.39-2.75-2.59-1.32-2.28-1.1-4.69-.01-5.32.54-.31,1.27-.16,1.85.08,2.21.94,3.91,3.88,3.62,6.27Z"></path><path class="cls-1" d="M68.26,45.18c-5.22-4.07-11.97-2.28-14.46,3.88-2.21,5.47-.32,12.56,4.34,16.19,5.23,4.08,11.98,2.27,14.46-3.88,1.07-2.64,1.21-5.77.4-8.79s-2.49-5.65-4.74-7.4ZM66.32,58.83c-.22.55-.74,1.52-1.68,1.78-.94.25-1.87-.33-2.34-.7-2.27-1.77-3.3-5.66-2.23-8.31.78-1.93,2.3-2.42,4.02-1.08,1.08.84,1.94,2.24,2.37,3.82s.37,3.22-.14,4.49Z"></path><path class="cls-1" d="M105.29,80.25c2.42-1.02,4.53-2.95,5.97-5.44,3.19-5.53,2.11-11.93-2.46-14.57-4.38-2.53-10.58-.52-13.85,5.15-1.43,2.48-2.05,5.28-1.73,7.89.75,6.11,6.4,9.37,12.07,6.97ZM99.94,72.45c-.29-2.37,1.4-5.33,3.62-6.27.57-.24,1.31-.39,1.85-.08,1.08.63,1.31,3.03-.01,5.32-.69,1.2-1.69,2.14-2.75,2.59-.43.18-1.24.43-1.85.08-.61-.35-.8-1.18-.86-1.64Z"></path><path class="cls-1" d="M90.96,65.24c4.65-3.63,6.55-10.72,4.34-16.19-1.19-2.93-3.45-5.04-6.2-5.78-5.5-1.48-11.21,2.61-13,9.31-.81,3.02-.67,6.14.41,8.79,2.49,6.15,9.23,7.95,14.46,3.88ZM82.63,54.33c.75-2.8,2.75-4.58,4.26-4.58,1.03,0,1.74.87,2.13,1.83,1.08,2.66.04,6.54-2.23,8.31-.47.37-1.4.95-2.34.7-.94-.25-1.45-1.22-1.68-1.78-.51-1.27-.57-2.91-.14-4.49Z"></path><path class="cls-1" d="M109.32,33.89c-9.68-8.28-22.02-12.84-34.77-12.84-29.5,0-53.51,24-53.51,53.51s24,53.51,53.51,53.51,53.51-24,53.51-53.51c0-9.83-2.69-19.44-7.77-27.79-.97-1.6-3.05-2.1-4.65-1.13s-2.1,3.05-1.13,4.65c4.44,7.29,6.79,15.68,6.79,24.27,0,25.77-20.97,46.74-46.74,46.74s-46.74-20.97-46.74-46.74,20.97-46.74,46.74-46.74c11.14,0,21.92,3.98,30.37,11.21,1.42,1.21,3.56,1.05,4.77-.37,1.22-1.42,1.05-3.56-.37-4.77Z"></path></g></svg>