<svg xmlns="http://www.w3.org/2000/svg" id="terrace_cafe" height="512" viewBox="0 0 512 512" width="512"><path d="m350.5 309.487h-89.5v-84.773c15.494-1.701 28.672-11.214 35.5-24.502 7.552 14.696 22.872 24.775 40.5 24.775s32.948-10.079 40.5-24.775c7.552 14.696 22.872 24.775 40.5 24.775 25.059 0 45.45-20.361 45.5-45.408.003-.175-.25-2.717-2.005-4.097-.135-.106-202.847-126.237-202.849-126.238-1.749-.874-3.569-1.075-5.294.001 0 0-202.688 126.175-202.847 126.237-1.089.421-2.008 3.922-2.005 4.097.05 25.047 20.442 45.408 45.5 45.408 17.628 0 32.948-10.079 40.5-24.775 7.552 14.696 22.872 24.775 40.5 24.775s32.948-10.079 40.5-24.775c6.828 13.288 20.006 22.801 35.5 24.502v84.773h-89.5c-7.72 0-14 6.28-14 14v9c0 7.72 6.28 14 14 14h8.5v112c0 2.762 2.239 5 5 5s5-2.238 5-5v-112h152v112c0 2.762 2.238 5 5 5s5-2.238 5-5v-112h8.5c7.72 0 14-6.28 14-14v-9c0-7.719-6.28-14-14-14zm-13.5-94.5c-17.878 0-32.712-13.284-35.149-30.5h70.299c-2.438 17.217-17.272 30.5-35.15 30.5zm81 0c-17.878 0-32.712-13.284-35.149-30.5h70.299c-2.438 17.217-17.272 30.5-35.15 30.5zm23-40.5h-61.375l-92.063-95.473zm-75.267 0h-65.588l-32.794-102.025zm-109.733-104.66 33.641 104.661h-67.282zm-162 145.16c-17.878 0-32.712-13.284-35.149-30.5h70.298c-2.437 17.217-17.27 30.5-35.149 30.5zm38.376-40.5h-61.376l153.438-95.473zm42.624 40.5c-17.878 0-32.712-13.284-35.149-30.5h70.298c-2.437 17.217-17.27 30.5-35.149 30.5zm36.855-40.5h-65.587l98.381-102.025zm8.996 10h70.298c-2.438 17.216-17.271 30.5-35.149 30.5s-32.712-13.283-35.149-30.5zm133.649 148c0 2.206-1.794 4-4 4h-189c-2.206 0-4-1.794-4-4v-9c0-2.206 1.794-4 4-4h189c2.206 0 4 1.794 4 4zm-224.5 44.5h-54.264l-17.304-103.822c-.454-2.724-3.032-4.57-5.754-4.109-2.724.454-4.564 3.029-4.11 5.754l17.932 107.591v76.086c0 2.762 2.239 5 5 5s5-2.238 5-5v-44.5h53.5c1.39 0 2.732-.203 4-.582v45.082c0 2.762 2.239 5 5 5s5-2.238 5-5v-67.5c0-7.719-6.28-14-14-14zm4 23c0 2.206-1.794 4-4 4h-53.5v-17h53.5c2.206 0 4 1.794 4 4zm325.323-130.931c-2.721-.46-5.301 1.386-5.754 4.109l-17.304 103.822h-54.265c-7.72 0-14 6.28-14 14v67.5c0 2.762 2.238 5 5 5s5-2.238 5-5v-45.082c1.268.379 2.61.582 4 .582h53.5v44.5c0 2.762 2.238 5 5 5s5-2.238 5-5v-76.086l17.932-107.592c.454-2.724-1.386-5.299-4.109-5.753zm-23.823 134.931h-53.5c-2.206 0-4-1.794-4-4v-9c0-2.206 1.794-4 4-4h53.5z" fill="rgb(0,0,0)"></path></svg>